<svg xmlns="http://www.w3.org/2000/svg" width="24" height="25" fill="none" viewBox="0 0 24 25">
    <path fill="#fff" fill-rule="evenodd" d="M2.879 2.879C2 3.757 2 5.172 2 8v6.75c0 2.828 0 4.243.879 5.121.878.879 2.293.879 5.121.879h8c2.828 0 4.243 0 5.121-.879.879-.878.879-2.293.879-5.121V8c0-2.828 0-4.243-.879-5.121C20.243 2 18.828 2 16 2H8c-2.828 0-4.243 0-5.121.879ZM16 7.25a1 1 0 0 1 1 1v8.333a1 1 0 1 1-2 0V8.25a1 1 0 0 1 1-1Zm-7 3.083a1 1 0 0 0-2 0v6.25a1 1 0 1 0 2 0v-6.25Zm4 2.084a1 1 0 1 0-2 0v4.166a1 1 0 1 0 2 0v-4.166Z" clip-rule="evenodd"/>
</svg>